<?xml version="1.0" standalone="no"?>
<!DOCTYPE svg PUBLIC "-//W3C//DTD SVG 1.1//EN" "http://www.w3.org/Graphics/SVG/1.1/DTD/svg11.dtd">
<svg version="1.1" xmlns="http://www.w3.org/2000/svg" viewBox="0 0 429 375" width="429" height="375" filter="invert(93%) hue-rotate(180deg)"><!-- svg-source:excalidraw --><metadata></metadata><defs><style class="style-fonts">
      </style></defs><g stroke-linecap="round" transform="translate(10 10) rotate(0 204.5 177.5)"><path d="M32 0 C153.57 2.12, 274.01 2.29, 377 0 M32 0 C109.69 1.22, 188.29 0.49, 377 0 M377 0 C399.05 -1.47, 410.36 10.11, 409 32 M377 0 C397.99 -2.07, 408.36 9.07, 409 32 M409 32 C408.51 126.54, 408.3 222.98, 409 323 M409 32 C407.64 102.52, 408.1 172.34, 409 323 M409 323 C407.72 345.41, 396.57 356.04, 377 355 M409 323 C407.03 346.24, 400.27 357.09, 377 355 M377 355 C253.8 356.39, 128.52 355.54, 32 355 M377 355 C279.48 354.71, 181.26 354.32, 32 355 M32 355 C12.15 354.07, 0.91 344.76, 0 323 M32 355 C12.69 353.41, 1.33 344.71, 0 323 M0 323 C2.03 237.64, 2.61 149.87, 0 32 M0 323 C-1.77 249.62, -1.13 175.78, 0 32 M0 32 C0.07 11.1, 12.13 1.64, 32 0 M0 32 C-1.23 12.36, 9.7 -0.97, 32 0" stroke="#1e1e1e" stroke-width="2" fill="none"></path></g><g stroke-linecap="round" transform="translate(38 39) rotate(0 123.5 35)"><path d="M17.5 0 C86.59 1.58, 153.58 0.34, 229.5 0 M17.5 0 C80.19 -1.46, 140.79 -0.36, 229.5 0 M229.5 0 C241.3 -1.44, 248.01 6.11, 247 17.5 M229.5 0 C242.06 0.08, 247.5 7.51, 247 17.5 M247 17.5 C245.98 30.03, 245.12 43.1, 247 52.5 M247 17.5 C248.04 26.12, 246.55 35.92, 247 52.5 M247 52.5 C245.74 62.95, 240.41 71.88, 229.5 70 M247 52.5 C246.83 62.84, 241.31 68.29, 229.5 70 M229.5 70 C179.92 68.01, 133.9 69.72, 17.5 70 M229.5 70 C164.17 68.31, 99.5 67.99, 17.5 70 M17.5 70 C6.01 71.85, 1.45 65.52, 0 52.5 M17.5 70 C5.72 71.47, -1.86 63.07, 0 52.5 M0 52.5 C-0.47 40.93, 2.11 28.51, 0 17.5 M0 52.5 C-0.26 39.54, 1.2 28.4, 0 17.5 M0 17.5 C0.64 7.63, 5.27 1.98, 17.5 0 M0 17.5 C0.68 5.47, 4.69 0.14, 17.5 0" stroke="#1e1e1e" stroke-width="2" fill="none"></path></g><g stroke-linecap="round" transform="translate(300 38) rotate(0 45 34)"><path d="M17 0 C31.91 -1.16, 47.58 0.83, 73 0 M17 0 C35.17 0.29, 55.09 -0.38, 73 0 M73 0 C85.07 -0.83, 89.48 6.82, 90 17 M73 0 C85.98 -1.87, 92.1 6.53, 90 17 M90 17 C91.01 28.95, 88.71 41.23, 90 51 M90 17 C89.88 26.13, 90.35 37.6, 90 51 M90 51 C90.4 60.7, 84.84 66.64, 73 68 M90 51 C88.61 61.28, 85.79 66.48, 73 68 M73 68 C51.89 69.65, 31.29 67.72, 17 68 M73 68 C52.15 66.91, 33.75 68.63, 17 68 M17 68 C4.79 67.55, -1.34 62.19, 0 51 M17 68 C7.88 69.47, -1.71 61.31, 0 51 M0 51 C-0.69 42.14, 1.56 29.28, 0 17 M0 51 C0.85 43.33, -0.48 34.44, 0 17 M0 17 C-1.59 5, 6.96 0.42, 17 0 M0 17 C0.38 4.9, 7.27 -1.21, 17 0" stroke="#1e1e1e" stroke-width="2" fill="none"></path></g><g stroke-linecap="round" transform="translate(38 131) rotate(0 123 40)"><path d="M20 0 C65.03 -1.45, 112.1 1.14, 226 0 M20 0 C95.24 1.06, 170.87 1.52, 226 0 M226 0 C238.53 -0.6, 244.41 6, 246 20 M226 0 C240.82 0.49, 246.38 5.9, 246 20 M246 20 C247.38 35.53, 244.1 48.2, 246 60 M246 20 C246.19 28.45, 245.47 37.46, 246 60 M246 60 C245.63 72.46, 237.36 81.66, 226 80 M246 60 C246.93 73.94, 238.47 81.68, 226 80 M226 80 C162.44 81.89, 97.01 82.23, 20 80 M226 80 C149.39 80.96, 74.41 80.15, 20 80 M20 80 C6.07 79.95, -1.71 72.91, 0 60 M20 80 C7.68 78.53, -2.3 72.7, 0 60 M0 60 C-0.66 49.25, 0.48 43.54, 0 20 M0 60 C-0.13 45.86, 0.55 30.46, 0 20 M0 20 C-0.25 5.39, 4.99 0.93, 20 0 M0 20 C-1.44 8.54, 6.86 -1.8, 20 0" stroke="#1e1e1e" stroke-width="2" fill="none"></path></g><g stroke-linecap="round" transform="translate(306 139) rotate(0 43 34.5)"><path d="M17.25 0 C38.77 0.84, 54.64 1.85, 68.75 0 M17.25 0 C33.85 0.19, 52.44 -0.35, 68.75 0 M68.75 0 C78.51 0.77, 87.59 5.96, 86 17.25 M68.75 0 C79.84 -2.02, 83.92 5.06, 86 17.25 M86 17.25 C84.23 29.2, 84.31 45.7, 86 51.75 M86 17.25 C85.1 27.97, 85.54 37.93, 86 51.75 M86 51.75 C87.2 63.09, 80.06 69.84, 68.75 69 M86 51.75 C86 64.98, 78.1 71.19, 68.75 69 M68.75 69 C54.45 71.26, 42.57 68.54, 17.25 69 M68.75 69 C54.44 68.19, 41.71 68.24, 17.25 69 M17.25 69 C5.48 68.51, -0.68 63.76, 0 51.75 M17.25 69 C5.64 70.23, -0.42 65.09, 0 51.75 M0 51.75 C-0.14 43.35, 1.95 35.86, 0 17.25 M0 51.75 C1.07 44.37, -0.12 36.35, 0 17.25 M0 17.25 C1.78 4.81, 6.34 -0.91, 17.25 0 M0 17.25 C0.06 7.72, 5.07 0.41, 17.25 0" stroke="#1e1e1e" stroke-width="2" fill="none"></path></g><g stroke-linecap="round" transform="translate(41 226) rotate(0 177 62)"><path d="M31 0 C111.27 0.5, 191.28 1.28, 323 0 M31 0 C102.1 -3.26, 175.05 -2.55, 323 0 M323 0 C340.55 -3.86, 351.02 13.28, 354 31 M323 0 C344.93 -2.08, 353.61 14.42, 354 31 M354 31 C354.48 50.1, 353.19 63.07, 354 93 M354 31 C351.59 55.41, 352.84 80.99, 354 93 M354 93 C350.41 111.72, 342.29 121.95, 323 124 M354 93 C354.06 109.91, 344.68 121.99, 323 124 M323 124 C259.38 120.89, 199.88 124.81, 31 124 M323 124 C219.39 120.17, 113.8 118.97, 31 124 M31 124 C8.69 127.62, -2.12 116.61, 0 93 M31 124 C11.62 123.61, 3.86 116.28, 0 93 M0 93 C1.87 78.23, -0.22 58.25, 0 31 M0 93 C0.82 73.45, -0.25 50.36, 0 31 M0 31 C0.07 12.01, 10.21 0.78, 31 0 M0 31 C1.84 9.58, 7.05 1.14, 31 0" stroke="#1e1e1e" stroke-width="2" fill="none"></path></g><g transform="translate(89 55) rotate(0 59.5 11)" stroke="none"><path fill="#1e1e1e" d="M 2.25,3.21 Q 2.25,3.21 -0.62,5.22 -3.49,7.24 -7.01,9.88 -10.53,12.53 -13.81,15.10 -17.09,17.66 -19.50,19.95 -21.90,22.24 -23.61,24.33 -25.32,26.41 -25.75,27.42 -26.19,28.42 -26.56,28.74 -26.93,29.06 -27.37,29.28 -27.81,29.51 -28.29,29.62 -28.77,29.73 -29.27,29.72 -29.76,29.71 -30.23,29.59 -30.71,29.46 -31.14,29.23 -31.58,28.99 -31.94,28.66 -32.30,28.33 -32.58,27.92 -32.85,27.51 -33.02,27.05 -33.19,26.58 -33.24,26.09 -33.29,25.60 -33.22,25.12 -33.16,24.63 -32.98,24.17 -32.80,23.71 -32.51,23.31 -32.22,22.91 -30.41,21.54 -28.59,20.16 -22.45,17.17 -16.32,14.17 -8.32,10.14 -0.32,6.11 5.46,3.54 11.25,0.97 13.00,-0.33 14.75,-1.65 15.17,-1.78 15.58,-1.92 16.02,-1.95 16.46,-1.98 16.89,-1.91 17.33,-1.83 17.73,-1.66 18.13,-1.48 18.48,-1.21 18.83,-0.95 19.10,-0.60 19.38,-0.26 19.56,0.13 19.75,0.52 19.83,0.96 19.92,1.39 19.89,1.83 19.87,2.26 19.75,2.68 19.62,3.11 19.40,3.48 19.18,3.86 18.87,4.18 18.56,4.49 18.19,4.72 17.82,4.95 15.91,6.08 14.00,7.21 12.12,9.66 10.24,12.11 9.39,13.72 8.54,15.33 8.20,15.66 7.85,15.99 7.43,16.23 7.01,16.47 6.55,16.61 6.08,16.74 5.60,16.76 5.12,16.77 4.65,16.68 4.18,16.58 3.74,16.37 3.31,16.16 2.94,15.86 2.57,15.55 2.28,15.16 1.99,14.78 1.80,14.33 1.61,13.89 1.54,13.41 1.46,12.94 1.50,12.46 1.54,11.98 1.70,11.52 1.85,11.07 2.11,10.66 2.37,10.25 5.61,10.34 8.85,10.43 14.14,8.23 19.43,6.03 27.31,3.16 35.19,0.30 40.19,-1.98 45.20,-4.27 46.38,-4.61 47.56,-4.94 47.96,-5.08 48.37,-5.21 48.79,-5.25 49.22,-5.29 49.64,-5.22 50.06,-5.15 50.46,-4.99 50.85,-4.82 51.19,-4.56 51.53,-4.31 51.80,-3.98 52.08,-3.65 52.26,-3.26 52.44,-2.88 52.53,-2.46 52.62,-2.04 52.60,-1.62 52.59,-1.19 52.47,-0.78 52.35,-0.37 52.14,-0.00 51.93,0.36 51.63,0.67 51.34,0.98 50.98,1.21 50.62,1.44 49.85,3.46 49.08,5.48 52.01,5.47 54.94,5.46 60.58,6.00 66.23,6.55 71.57,5.76 76.90,4.96 78.74,4.35 80.57,3.75 81.04,3.72 81.52,3.70 81.98,3.79 82.45,3.88 82.87,4.08 83.30,4.28 83.67,4.58 84.04,4.87 84.33,5.25 84.62,5.62 84.80,6.06 84.99,6.49 85.07,6.96 85.15,7.42 85.12,7.89 85.09,8.37 84.94,8.82 84.79,9.27 84.54,9.67 84.30,10.07 83.96,10.40 83.62,10.73 83.21,10.97 82.80,11.21 82.35,11.35 81.90,11.48 81.26,13.27 80.63,15.07 80.22,15.39 79.81,15.72 79.34,15.94 78.86,16.16 78.35,16.26 77.83,16.36 77.31,16.33 76.79,16.31 76.29,16.16 75.78,16.01 75.33,15.74 74.88,15.47 74.51,15.11 74.13,14.74 73.86,14.29 73.58,13.85 73.42,13.35 73.26,12.85 73.23,12.33 73.19,11.81 73.28,11.29 73.37,10.77 73.58,10.29 73.79,9.82 74.11,9.40 74.43,8.98 77.38,8.75 80.34,8.51 85.25,8.15 90.16,7.79 95.74,8.07 101.31,8.35 102.02,10.37 102.73,12.39 101.75,14.55 100.77,16.71 107.61,17.29 114.45,17.87 120.60,17.19 126.74,16.52 131.87,16.01 137.00,15.50 139.15,14.86 141.31,14.22 144.53,10.98 147.76,7.75 148.49,7.51 149.23,7.26 150.00,7.26 150.78,7.26 151.51,7.51 152.25,7.76 152.87,8.23 153.48,8.70 153.92,9.35 154.35,9.99 154.56,10.74 154.76,11.49 154.72,12.26 154.68,13.04 154.39,13.76 154.10,14.48 153.60,15.07 153.09,15.66 152.43,16.05 151.76,16.45 151.00,16.62 150.24,16.78 149.47,16.70 148.70,16.61 148.00,16.29 147.30,15.96 146.73,15.42 146.17,14.89 145.81,14.20 145.45,13.52 145.32,12.75 145.20,11.98 145.33,11.22 145.45,10.45 145.82,9.77 146.18,9.09 146.75,8.55 147.31,8.02 148.02,7.70 148.72,7.37 149.49,7.29 150.27,7.21 151.02,7.38 151.78,7.54 152.44,7.95 153.11,8.35 153.61,8.94 154.11,9.53 154.39,10.25 154.68,10.97 154.72,11.75 154.76,12.52 154.55,13.27 154.34,14.02 153.91,14.66 153.47,15.30 152.85,15.77 152.23,16.24 152.23,16.24 152.23,16.24 150.26,17.99 148.29,19.75 145.73,20.94 143.17,22.13 140.54,22.30 137.92,22.47 132.85,23.30 127.78,24.13 120.77,25.25 113.75,26.38 106.50,25.98 99.26,25.57 96.84,24.44 94.43,23.31 93.37,19.87 92.30,16.42 94.32,14.17 96.34,11.92 93.56,13.73 90.78,15.55 85.71,15.31 80.63,15.07 80.22,15.39 79.81,15.72 79.34,15.94 78.86,16.16 78.35,16.26 77.83,16.36 77.31,16.33 76.79,16.31 76.29,16.16 75.79,16.01 75.33,15.74 74.88,15.47 74.51,15.11 74.14,14.74 73.86,14.29 73.58,13.85 73.42,13.35 73.26,12.85 73.23,12.33 73.19,11.81 73.28,11.29 73.37,10.78 73.58,10.30 73.79,9.82 74.11,9.40 74.43,8.98 75.79,7.67 77.16,6.36 78.86,5.05 80.57,3.75 81.04,3.72 81.52,3.70 81.98,3.79 82.44,3.88 82.87,4.08 83.30,4.28 83.67,4.58 84.04,4.87 84.33,5.25 84.62,5.62 84.80,6.06 84.99,6.49 85.07,6.96 85.15,7.42 85.12,7.89 85.09,8.37 84.94,8.81 84.79,9.26 84.55,9.67 84.30,10.07 83.96,10.40 83.62,10.73 83.21,10.97 82.80,11.21 82.35,11.35 81.90,11.48 80.00,11.71 78.10,11.94 71.94,13.12 65.79,14.29 59.28,14.06 52.77,13.84 48.36,12.46 43.95,11.09 42.85,9.04 41.75,7.00 43.03,3.01 44.31,-0.96 45.93,-2.95 47.56,-4.94 47.96,-5.08 48.37,-5.21 48.79,-5.25 49.22,-5.29 49.64,-5.22 50.06,-5.15 50.46,-4.99 50.85,-4.82 51.19,-4.56 51.53,-4.31 51.80,-3.98 52.07,-3.65 52.26,-3.27 52.44,-2.88 52.53,-2.46 52.62,-2.04 52.60,-1.62 52.59,-1.19 52.47,-0.78 52.35,-0.37 52.14,-0.00 51.93,0.36 51.63,0.67 51.34,0.98 50.98,1.21 50.62,1.44 49.22,1.44 47.82,1.44 42.70,4.00 37.58,6.56 29.75,9.69 21.92,12.82 15.23,14.07 8.54,15.33 8.20,15.66 7.85,15.99 7.43,16.23 7.01,16.47 6.55,16.61 6.09,16.74 5.60,16.76 5.12,16.77 4.65,16.68 4.18,16.58 3.74,16.37 3.31,16.16 2.94,15.86 2.57,15.55 2.28,15.16 1.99,14.78 1.80,14.33 1.61,13.89 1.54,13.41 1.46,12.94 1.50,12.46 1.54,11.98 1.70,11.52 1.85,11.07 2.11,10.66 2.37,10.25 3.50,8.88 4.63,7.51 7.41,4.30 10.18,1.09 12.46,-0.28 14.75,-1.65 15.17,-1.78 15.58,-1.92 16.02,-1.95 16.46,-1.98 16.89,-1.91 17.32,-1.83 17.73,-1.66 18.13,-1.48 18.48,-1.21 18.83,-0.95 19.10,-0.60 19.38,-0.26 19.56,0.13 19.75,0.52 19.83,0.96 19.92,1.39 19.89,1.83 19.87,2.26 19.75,2.68 19.62,3.11 19.40,3.48 19.18,3.86 18.87,4.18 18.56,4.49 18.19,4.72 17.82,4.95 15.89,5.88 13.97,6.81 8.42,9.50 2.87,12.20 -4.99,16.50 -12.85,20.80 -19.52,24.61 -26.19,28.42 -26.56,28.74 -26.93,29.06 -27.37,29.28 -27.81,29.51 -28.29,29.62 -28.77,29.73 -29.26,29.72 -29.76,29.71 -30.23,29.59 -30.71,29.46 -31.14,29.23 -31.58,28.99 -31.94,28.66 -32.30,28.33 -32.58,27.92 -32.85,27.51 -33.02,27.05 -33.19,26.58 -33.24,26.09 -33.29,25.60 -33.22,25.12 -33.16,24.63 -32.98,24.17 -32.80,23.71 -32.51,23.31 -32.22,22.91 -31.59,22.11 -30.95,21.31 -28.80,19.16 -26.64,17.01 -24.00,14.74 -21.37,12.48 -18.21,9.73 -15.05,6.98 -11.52,3.89 -8.00,0.80 -5.12,-1.20 -2.25,-3.21 -1.83,-3.44 -1.41,-3.66 -0.95,-3.78 -0.49,-3.89 -0.02,-3.90 0.44,-3.90 0.90,-3.79 1.36,-3.68 1.78,-3.46 2.21,-3.24 2.56,-2.93 2.92,-2.62 3.19,-2.23 3.46,-1.84 3.63,-1.40 3.80,-0.96 3.86,-0.49 3.92,-0.02 3.87,0.44 3.82,0.91 3.65,1.35 3.49,1.80 3.22,2.19 2.95,2.58 2.60,2.90 2.25,3.21 2.25,3.21 L 2.25,3.21 Z"></path></g><g transform="translate(56 178) rotate(0 101.5 3)" stroke="none"><path fill="#1e1e1e" d="M -2.05,-2.96 Q -2.05,-2.96 1.75,-5.44 5.57,-7.92 10.14,-10.70 14.71,-13.48 18.62,-16.04 22.53,-18.59 24.95,-20.15 27.37,-21.72 27.74,-21.90 28.10,-22.09 28.49,-22.18 28.89,-22.27 29.30,-22.27 29.71,-22.27 30.10,-22.16 30.50,-22.06 30.86,-21.87 31.21,-21.68 31.52,-21.40 31.82,-21.13 32.05,-20.79 32.27,-20.45 32.42,-20.07 32.56,-19.69 32.60,-19.28 32.65,-18.88 32.59,-18.47 32.54,-18.07 32.39,-17.69 32.24,-17.31 32.01,-16.98 31.77,-16.64 31.46,-16.38 31.16,-16.11 28.19,-11.54 25.22,-6.98 22.80,-3.44 20.38,0.09 19.50,3.56 18.61,7.03 17.56,10.97 16.51,14.90 16.13,18.62 15.75,22.33 15.61,22.69 15.47,23.05 15.24,23.37 15.02,23.68 14.73,23.94 14.43,24.19 14.09,24.37 13.74,24.55 13.37,24.63 12.99,24.72 12.60,24.72 12.22,24.72 11.84,24.62 11.47,24.52 11.12,24.34 10.78,24.16 10.50,23.90 10.21,23.64 9.99,23.31 9.77,22.99 9.64,22.63 9.51,22.27 9.46,21.88 9.42,21.50 9.47,21.11 9.52,20.73 14.75,18.41 19.97,16.10 26.88,11.71 33.78,7.33 39.96,2.88 46.13,-1.57 50.27,-4.36 54.40,-7.15 56.55,-8.64 58.71,-10.13 59.32,-10.14 59.93,-10.16 60.32,-10.33 60.72,-10.50 61.14,-10.57 61.56,-10.64 61.98,-10.61 62.41,-10.58 62.82,-10.44 63.22,-10.31 63.58,-10.08 63.95,-9.86 64.24,-9.55 64.54,-9.25 64.76,-8.88 64.97,-8.51 65.10,-8.10 65.22,-7.69 65.24,-7.26 65.26,-6.84 65.17,-6.42 65.09,-6.00 64.91,-5.61 64.73,-5.23 64.46,-4.89 64.19,-4.56 63.85,-4.30 63.51,-4.04 61.25,-6.75 58.98,-9.46 59.36,-9.62 59.74,-9.79 60.16,-9.86 60.57,-9.93 60.99,-9.90 61.40,-9.87 61.80,-9.74 62.20,-9.61 62.55,-9.39 62.91,-9.16 63.20,-8.87 63.49,-8.57 63.70,-8.20 63.91,-7.84 64.03,-7.44 64.15,-7.04 64.17,-6.62 64.19,-6.21 64.11,-5.80 64.03,-5.39 63.85,-5.01 63.67,-4.63 63.41,-4.30 63.15,-3.98 62.81,-3.73 62.48,-3.47 62.48,-6.53 62.48,-9.60 64.81,-10.71 67.13,-11.82 70.84,-13.76 74.55,-15.70 76.70,-16.80 78.85,-17.89 79.27,-18.06 79.69,-18.23 80.14,-18.30 80.58,-18.37 81.03,-18.32 81.48,-18.28 81.91,-18.13 82.34,-17.98 82.71,-17.73 83.09,-17.49 83.40,-17.16 83.71,-16.83 83.93,-16.43 84.15,-16.04 84.27,-15.60 84.39,-15.16 84.40,-14.71 84.41,-14.26 84.31,-13.82 84.21,-13.38 84.01,-12.97 83.81,-12.57 83.52,-12.22 83.23,-11.88 82.87,-11.61 82.50,-11.35 82.68,-8.32 82.86,-5.30 82.00,0.66 81.14,6.62 80.94,9.96 80.73,13.30 85.38,9.36 90.03,5.42 94.69,2.24 99.36,-0.92 101.34,-2.88 103.33,-4.84 106.98,-6.76 110.64,-8.68 115.65,-10.76 120.67,-12.83 123.74,-14.27 126.82,-15.71 127.75,-16.43 128.68,-17.14 129.19,-17.30 129.69,-17.47 130.23,-17.50 130.76,-17.54 131.28,-17.45 131.81,-17.36 132.30,-17.15 132.79,-16.93 133.21,-16.61 133.63,-16.28 133.97,-15.87 134.30,-15.45 134.52,-14.97 134.75,-14.48 134.85,-13.96 134.95,-13.44 134.92,-12.91 134.90,-12.37 134.74,-11.86 134.59,-11.35 134.32,-10.89 134.05,-10.43 133.68,-10.05 133.30,-9.67 132.85,-9.39 132.40,-9.11 130.67,-7.69 128.95,-6.27 127.81,-4.54 126.67,-2.82 126.21,-2.52 125.74,-2.23 125.21,-2.06 124.69,-1.88 124.14,-1.84 123.59,-1.80 123.04,-1.89 122.50,-1.98 121.99,-2.19 121.48,-2.41 121.04,-2.75 120.60,-3.08 120.25,-3.51 119.90,-3.94 119.67,-4.44 119.43,-4.94 119.32,-5.48 119.21,-6.02 119.24,-6.57 119.26,-7.12 119.41,-7.65 119.57,-8.18 119.85,-8.66 120.12,-9.14 120.51,-9.54 120.89,-9.94 123.62,-10.31 126.35,-10.68 130.01,-12.25 133.67,-13.82 139.07,-14.29 144.48,-14.75 146.06,-10.96 147.63,-7.16 152.58,-3.90 157.52,-0.64 165.84,0.46 174.15,1.56 181.49,0.46 188.83,-0.63 192.89,-1.59 196.94,-2.55 197.82,-2.88 198.70,-3.22 199.13,-3.28 199.56,-3.34 200.00,-3.30 200.43,-3.25 200.85,-3.11 201.26,-2.96 201.62,-2.72 201.99,-2.48 202.28,-2.16 202.58,-1.83 202.79,-1.45 203.00,-1.07 203.11,-0.65 203.23,-0.22 203.24,0.20 203.24,0.64 203.15,1.07 203.05,1.49 202.86,1.88 202.66,2.28 202.38,2.61 202.09,2.94 201.74,3.20 201.38,3.45 200.98,3.61 200.57,3.78 198.85,5.60 197.12,7.43 194.98,9.41 192.84,11.40 191.44,12.62 190.04,13.85 189.34,14.24 188.65,14.62 187.86,14.76 187.08,14.91 186.30,14.79 185.51,14.68 184.80,14.32 184.09,13.96 183.53,13.39 182.98,12.82 182.63,12.11 182.29,11.39 182.19,10.60 182.09,9.82 182.24,9.04 182.40,8.26 182.80,7.57 183.20,6.88 183.79,6.36 184.39,5.83 185.12,5.52 185.85,5.22 186.65,5.16 187.44,5.10 188.21,5.30 188.98,5.50 189.64,5.94 190.31,6.37 190.80,6.99 191.29,7.62 191.56,8.37 191.83,9.12 191.84,9.91 191.86,10.70 191.62,11.46 191.38,12.22 190.91,12.86 190.44,13.50 189.79,13.96 189.14,14.42 188.37,14.64 187.61,14.87 186.82,14.84 186.02,14.81 185.28,14.53 184.54,14.25 183.92,13.74 183.31,13.24 182.89,12.57 182.46,11.89 182.28,11.12 182.09,10.35 182.17,9.55 182.24,8.76 182.56,8.04 182.88,7.31 183.42,6.72 183.95,6.14 183.95,6.14 183.95,6.14 187.20,4.00 190.45,1.87 193.03,1.29 195.61,0.71 197.15,-1.25 198.70,-3.22 199.13,-3.28 199.56,-3.34 200.00,-3.30 200.43,-3.25 200.85,-3.11 201.26,-2.96 201.62,-2.72 201.99,-2.48 202.28,-2.16 202.58,-1.83 202.79,-1.45 203.00,-1.07 203.11,-0.65 203.23,-0.22 203.24,0.20 203.24,0.64 203.15,1.07 203.05,1.49 202.86,1.88 202.66,2.28 202.38,2.61 202.09,2.94 201.74,3.20 201.38,3.45 200.98,3.61 200.57,3.78 199.61,3.82 198.65,3.86 194.32,5.14 189.99,6.43 181.66,7.90 173.33,9.36 163.71,8.40 154.09,7.43 147.46,4.37 140.82,1.31 139.55,-1.66 138.28,-4.64 138.92,-7.28 139.56,-9.92 138.23,-8.14 136.90,-6.35 131.79,-4.59 126.67,-2.82 126.21,-2.52 125.74,-2.23 125.21,-2.06 124.69,-1.88 124.14,-1.84 123.59,-1.80 123.04,-1.89 122.50,-1.98 121.99,-2.19 121.48,-2.41 121.04,-2.75 120.60,-3.08 120.25,-3.51 119.90,-3.94 119.67,-4.44 119.43,-4.94 119.32,-5.48 119.21,-6.02 119.24,-6.57 119.26,-7.12 119.41,-7.65 119.57,-8.18 119.85,-8.66 120.12,-9.14 120.51,-9.54 120.89,-9.93 122.17,-11.43 123.45,-12.93 126.07,-15.03 128.68,-17.14 129.19,-17.30 129.69,-17.47 130.23,-17.50 130.76,-17.54 131.28,-17.45 131.81,-17.36 132.30,-17.15 132.79,-16.93 133.21,-16.61 133.63,-16.29 133.97,-15.87 134.30,-15.45 134.52,-14.97 134.75,-14.49 134.85,-13.96 134.95,-13.44 134.92,-12.91 134.90,-12.37 134.74,-11.86 134.59,-11.35 134.32,-10.89 134.05,-10.43 133.68,-10.05 133.30,-9.67 132.85,-9.39 132.40,-9.11 131.36,-8.64 130.32,-8.17 127.40,-6.84 124.48,-5.51 118.45,-2.89 112.41,-0.26 110.26,0.16 108.12,0.60 105.68,2.55 103.23,4.49 98.83,7.79 94.44,11.09 89.10,15.13 83.77,19.17 80.93,19.33 78.10,19.49 76.17,16.09 74.24,12.69 74.70,9.26 75.15,5.83 75.86,-0.07 76.56,-5.97 77.71,-11.93 78.85,-17.89 79.27,-18.06 79.69,-18.23 80.14,-18.30 80.58,-18.37 81.03,-18.32 81.48,-18.28 81.91,-18.13 82.33,-17.98 82.71,-17.73 83.09,-17.49 83.40,-17.16 83.71,-16.83 83.93,-16.43 84.15,-16.04 84.27,-15.60 84.39,-15.17 84.40,-14.71 84.41,-14.26 84.31,-13.82 84.21,-13.38 84.01,-12.97 83.81,-12.57 83.52,-12.22 83.23,-11.88 82.87,-11.61 82.50,-11.35 80.17,-10.58 77.83,-9.81 73.68,-7.38 69.54,-4.94 65.56,-3.87 61.59,-2.79 60.28,-6.13 58.98,-9.46 59.36,-9.62 59.74,-9.79 60.16,-9.86 60.57,-9.93 60.98,-9.90 61.40,-9.87 61.80,-9.74 62.20,-9.61 62.55,-9.39 62.91,-9.17 63.20,-8.87 63.49,-8.57 63.70,-8.21 63.91,-7.84 64.03,-7.44 64.15,-7.04 64.17,-6.63 64.19,-6.21 64.11,-5.80 64.03,-5.39 63.85,-5.01 63.67,-4.63 63.41,-4.30 63.15,-3.98 62.82,-3.73 62.48,-3.47 61.21,-6.81 59.93,-10.16 60.32,-10.33 60.72,-10.50 61.14,-10.57 61.56,-10.64 61.98,-10.61 62.41,-10.58 62.82,-10.44 63.22,-10.31 63.58,-10.08 63.95,-9.86 64.24,-9.55 64.54,-9.25 64.76,-8.88 64.97,-8.51 65.09,-8.10 65.22,-7.69 65.24,-7.26 65.26,-6.84 65.17,-6.42 65.09,-6.00 64.91,-5.61 64.73,-5.23 64.46,-4.89 64.19,-4.56 63.85,-4.30 63.51,-4.04 60.51,-3.32 57.51,-2.59 53.48,0.18 49.44,2.97 43.15,7.58 36.87,12.20 29.34,16.97 21.81,21.75 18.78,22.04 15.75,22.33 15.61,22.69 15.47,23.05 15.24,23.37 15.02,23.68 14.73,23.94 14.43,24.19 14.09,24.37 13.75,24.55 13.37,24.63 12.99,24.72 12.60,24.72 12.22,24.72 11.84,24.62 11.47,24.52 11.12,24.34 10.78,24.16 10.50,23.90 10.21,23.64 9.99,23.32 9.78,22.99 9.64,22.63 9.51,22.27 9.46,21.88 9.42,21.50 9.47,21.11 9.52,20.73 10.01,17.05 10.49,13.36 11.48,9.38 12.47,5.39 13.68,1.02 14.89,-3.34 17.40,-7.40 19.90,-11.46 22.09,-13.95 24.27,-16.44 25.82,-19.08 27.37,-21.72 27.73,-21.90 28.10,-22.09 28.49,-22.18 28.89,-22.27 29.30,-22.27 29.71,-22.27 30.10,-22.16 30.50,-22.06 30.86,-21.87 31.21,-21.68 31.52,-21.40 31.82,-21.13 32.05,-20.79 32.27,-20.45 32.42,-20.07 32.56,-19.69 32.60,-19.28 32.65,-18.88 32.59,-18.47 32.54,-18.07 32.39,-17.69 32.24,-17.31 32.01,-16.98 31.77,-16.64 31.46,-16.38 31.16,-16.11 28.53,-14.86 25.90,-13.60 21.99,-10.88 18.08,-8.16 13.73,-5.29 9.37,-2.42 5.71,0.27 2.05,2.96 1.67,3.17 1.28,3.37 0.86,3.47 0.44,3.58 0.00,3.58 -0.43,3.58 -0.85,3.48 -1.27,3.37 -1.66,3.17 -2.04,2.97 -2.37,2.68 -2.70,2.39 -2.94,2.04 -3.19,1.68 -3.35,1.27 -3.50,0.86 -3.55,0.43 -3.61,0.00 -3.55,-0.42 -3.50,-0.85 -3.35,-1.26 -3.19,-1.67 -2.95,-2.03 -2.70,-2.39 -2.38,-2.68 -2.05,-2.96 -2.05,-2.96 L -2.05,-2.96 Z"></path></g><g transform="translate(314 70) rotate(0 43.5 6.5)" stroke="none"><path fill="#1e1e1e" d="M 3.59,-2.61 Q 3.59,-2.61 5.77,0.64 7.95,3.89 9.82,7.89 11.69,11.88 13.54,16.79 15.38,21.70 16.97,26.07 18.55,30.44 19.91,32.58 21.28,34.73 23.46,32.82 25.64,30.92 27.18,29.23 28.72,27.53 32.41,24.52 36.09,21.51 39.85,17.60 43.61,13.68 48.50,8.54 53.38,3.39 58.65,-2.20 63.93,-7.80 68.78,-13.03 73.63,-18.25 76.92,-21.38 80.22,-24.52 81.78,-26.64 83.34,-28.77 83.66,-29.07 83.99,-29.37 84.37,-29.59 84.76,-29.80 85.18,-29.92 85.61,-30.04 86.05,-30.05 86.49,-30.06 86.93,-29.96 87.36,-29.87 87.75,-29.67 88.15,-29.48 88.49,-29.19 88.83,-28.91 89.09,-28.55 89.35,-28.19 89.51,-27.79 89.68,-27.38 89.75,-26.94 89.81,-26.50 89.77,-26.06 89.73,-25.62 89.58,-25.21 89.43,-24.79 89.19,-24.42 88.95,-24.05 87.84,-22.80 86.73,-21.56 86.27,-21.19 85.81,-20.81 85.25,-20.61 84.70,-20.40 84.11,-20.38 83.51,-20.36 82.95,-20.54 82.38,-20.71 81.90,-21.05 81.41,-21.40 81.07,-21.88 80.72,-22.36 80.54,-22.92 80.37,-23.49 80.38,-24.08 80.40,-24.67 80.60,-25.23 80.80,-25.79 81.17,-26.25 81.54,-26.71 82.04,-27.03 82.54,-27.35 83.11,-27.50 83.68,-27.64 84.28,-27.60 84.87,-27.55 85.41,-27.32 85.96,-27.09 86.40,-26.69 86.84,-26.30 87.14,-25.79 87.43,-25.27 87.54,-24.69 87.66,-24.11 87.58,-23.52 87.50,-22.93 87.24,-22.40 86.98,-21.87 86.56,-21.45 86.14,-21.03 85.61,-20.76 85.08,-20.50 84.50,-20.42 83.91,-20.33 83.33,-20.44 82.74,-20.55 82.23,-20.84 81.71,-21.13 81.31,-21.57 80.92,-22.01 80.68,-22.55 80.44,-23.10 80.39,-23.69 80.34,-24.28 80.48,-24.86 80.62,-25.43 80.94,-25.93 81.26,-26.43 81.26,-26.43 81.26,-26.43 82.30,-27.60 83.34,-28.77 83.66,-29.07 83.99,-29.37 84.37,-29.59 84.76,-29.80 85.18,-29.92 85.61,-30.04 86.05,-30.05 86.49,-30.06 86.92,-29.96 87.36,-29.87 87.75,-29.67 88.15,-29.48 88.49,-29.19 88.83,-28.91 89.09,-28.55 89.35,-28.20 89.51,-27.79 89.68,-27.38 89.74,-26.94 89.81,-26.50 89.77,-26.06 89.73,-25.62 89.58,-25.21 89.43,-24.79 89.19,-24.42 88.95,-24.05 88.27,-23.72 87.59,-23.39 85.97,-21.83 84.35,-20.28 81.28,-17.19 78.20,-14.11 73.47,-8.76 68.74,-3.41 63.65,2.33 58.55,8.09 53.93,13.42 49.30,18.75 45.57,23.25 41.84,27.74 38.72,31.00 35.60,34.25 33.30,36.48 31.01,38.71 28.97,39.97 26.93,41.22 22.49,41.65 18.05,42.08 16.47,40.12 14.90,38.16 13.68,35.49 12.46,32.83 10.68,28.60 8.89,24.36 6.87,19.85 4.86,15.33 3.05,12.04 1.24,8.75 -1.17,5.68 -3.59,2.61 -3.85,2.14 -4.11,1.67 -4.25,1.16 -4.39,0.64 -4.40,0.10 -4.42,-0.42 -4.30,-0.94 -4.18,-1.47 -3.95,-1.95 -3.71,-2.43 -3.37,-2.84 -3.02,-3.25 -2.59,-3.56 -2.15,-3.88 -1.66,-4.08 -1.16,-4.28 -0.63,-4.36 -0.10,-4.43 0.42,-4.38 0.95,-4.33 1.46,-4.15 1.96,-3.98 2.41,-3.68 2.86,-3.39 3.22,-3.00 3.59,-2.61 3.59,-2.61 L 3.59,-2.61 Z"></path></g><g transform="translate(379 153) rotate(0 -25 20.5)" stroke="none"><path fill="#1e1e1e" d="M 2.37,3.33 Q 2.37,3.33 -1.75,6.04 -5.89,8.76 -8.99,11.24 -12.09,13.72 -16.56,18.11 -21.03,22.50 -25.71,26.23 -30.40,29.95 -34.35,33.18 -38.30,36.41 -40.48,38.30 -42.66,40.19 -45.41,42.35 -48.16,44.51 -48.76,44.71 -49.37,44.91 -50.02,44.91 -50.66,44.91 -51.27,44.70 -51.87,44.49 -52.38,44.10 -52.89,43.71 -53.25,43.17 -53.61,42.64 -53.77,42.02 -53.94,41.40 -53.90,40.76 -53.87,40.12 -53.63,39.53 -53.38,38.93 -52.97,38.44 -52.55,37.96 -52.00,37.63 -51.44,37.30 -50.82,37.17 -50.19,37.03 -49.55,37.10 -48.91,37.18 -48.33,37.45 -47.75,37.72 -47.29,38.17 -46.82,38.61 -46.52,39.18 -46.23,39.75 -46.13,40.38 -46.03,41.02 -46.13,41.65 -46.24,42.28 -46.55,42.85 -46.85,43.41 -47.32,43.85 -47.79,44.29 -48.37,44.56 -48.95,44.82 -49.59,44.89 -50.23,44.96 -50.86,44.81 -51.48,44.67 -52.03,44.34 -52.58,44.00 -52.99,43.51 -53.41,43.02 -53.64,42.42 -53.88,41.83 -53.91,41.18 -53.94,40.54 -53.76,39.93 -53.59,39.31 -53.22,38.78 -52.86,38.25 -52.35,37.86 -51.83,37.48 -51.83,37.48 -51.83,37.48 -49.26,36.15 -46.69,34.82 -44.39,33.35 -42.09,31.87 -38.19,28.53 -34.29,25.18 -29.97,21.56 -25.66,17.95 -21.12,13.18 -16.59,8.41 -13.39,5.57 -10.20,2.73 -6.29,-0.29 -2.37,-3.33 -1.94,-3.56 -1.51,-3.80 -1.03,-3.92 -0.55,-4.05 -0.06,-4.06 0.42,-4.07 0.90,-3.96 1.39,-3.85 1.83,-3.62 2.27,-3.40 2.64,-3.08 3.02,-2.76 3.30,-2.36 3.59,-1.96 3.77,-1.50 3.95,-1.04 4.02,-0.55 4.09,-0.06 4.04,0.42 3.99,0.91 3.82,1.38 3.65,1.84 3.38,2.25 3.10,2.66 2.74,2.99 2.37,3.33 2.37,3.33 L 2.37,3.33 Z"></path></g><g transform="translate(338 153) rotate(0 16.5 21.5)" stroke="none"><path fill="#1e1e1e" d="M 2.93,-3.20 Q 2.93,-3.20 6.23,0.12 9.53,3.45 12.74,7.36 15.95,11.27 18.47,15.05 20.99,18.83 23.19,22.47 25.40,26.10 27.08,28.72 28.76,31.35 30.82,33.12 32.89,34.89 35.08,38.17 37.27,41.45 37.40,42.17 37.54,42.89 37.43,43.62 37.33,44.35 37.00,45.01 36.67,45.66 36.15,46.18 35.63,46.70 34.97,47.02 34.31,47.34 33.58,47.44 32.85,47.53 32.13,47.39 31.41,47.25 30.77,46.89 30.13,46.52 29.64,45.97 29.16,45.42 28.87,44.75 28.58,44.07 28.53,43.34 28.47,42.60 28.65,41.89 28.83,41.18 29.23,40.56 29.63,39.95 30.20,39.49 30.78,39.03 31.47,38.78 32.16,38.53 32.90,38.51 33.63,38.50 34.33,38.72 35.03,38.94 35.63,39.37 36.22,39.80 36.65,40.40 37.07,41.00 37.29,41.70 37.50,42.40 37.47,43.14 37.45,43.87 37.19,44.56 36.94,45.25 36.47,45.82 36.01,46.39 35.39,46.78 34.77,47.18 34.05,47.35 33.34,47.52 32.61,47.46 31.88,47.40 31.20,47.10 30.53,46.81 29.99,46.32 29.44,45.82 29.08,45.18 28.72,44.54 28.72,44.54 28.72,44.54 28.29,43.28 27.86,42.03 26.57,40.23 25.27,38.43 24.01,36.62 22.75,34.81 21.40,32.14 20.04,29.46 17.82,26.05 15.59,22.63 13.10,19.29 10.60,15.95 7.43,12.57 4.26,9.19 0.66,6.19 -2.93,3.20 -3.27,2.80 -3.61,2.40 -3.85,1.93 -4.08,1.47 -4.20,0.96 -4.32,0.45 -4.31,-0.07 -4.30,-0.59 -4.16,-1.10 -4.03,-1.60 -3.78,-2.06 -3.53,-2.52 -3.17,-2.91 -2.82,-3.30 -2.38,-3.59 -1.95,-3.88 -1.46,-4.05 -0.96,-4.23 -0.44,-4.28 0.07,-4.34 0.59,-4.27 1.11,-4.20 1.59,-4.00 2.08,-3.81 2.51,-3.50 2.93,-3.20 2.93,-3.20 L 2.93,-3.20 Z"></path></g><g transform="translate(55 340) rotate(0 152 -61.5)" stroke="none"><path fill="#1e1e1e" d="M -2.55,-2.33 Q -2.55,-2.33 0.69,-5.71 3.93,-9.08 8.45,-14.45 12.96,-19.82 18.55,-28.58 24.14,-37.34 29.65,-49.84 35.15,-62.35 40.09,-76.82 45.03,-91.30 47.41,-100.56 49.79,-109.83 50.74,-113.54 51.68,-117.25 51.81,-117.58 51.93,-117.90 52.13,-118.19 52.33,-118.48 52.60,-118.71 52.86,-118.94 53.17,-119.10 53.49,-119.26 53.83,-119.34 54.17,-119.42 54.52,-119.42 54.87,-119.41 55.21,-119.33 55.54,-119.24 55.85,-119.07 56.16,-118.91 56.42,-118.68 56.68,-118.44 56.88,-118.15 57.07,-117.86 57.20,-117.53 57.32,-117.20 57.36,-116.86 57.40,-116.51 57.35,-116.16 57.31,-115.82 56.17,-113.89 55.04,-111.96 52.05,-107.27 49.06,-102.59 46.42,-95.36 43.78,-88.13 42.07,-78.85 40.36,-69.57 39.32,-60.16 38.29,-50.76 38.40,-44.92 38.52,-39.08 43.06,-37.85 47.60,-36.62 57.44,-41.98 67.27,-47.33 78.23,-54.21 89.19,-61.09 97.66,-66.06 106.14,-71.03 110.02,-73.41 113.90,-75.79 114.57,-76.07 115.24,-76.34 115.57,-76.50 115.90,-76.65 116.26,-76.72 116.62,-76.79 116.99,-76.78 117.35,-76.76 117.70,-76.65 118.05,-76.55 118.37,-76.36 118.69,-76.18 118.95,-75.92 119.21,-75.66 119.40,-75.35 119.60,-75.04 119.71,-74.69 119.82,-74.34 119.85,-73.98 119.88,-73.61 119.81,-73.25 119.75,-72.89 119.61,-72.56 119.46,-72.22 119.24,-71.93 119.01,-71.64 118.73,-71.41 118.44,-71.18 115.09,-68.62 111.75,-66.06 106.22,-61.96 100.68,-57.86 96.42,-54.18 92.15,-50.51 90.63,-48.35 89.10,-46.19 88.48,-44.55 87.86,-42.90 87.54,-42.61 87.23,-42.32 86.85,-42.12 86.48,-41.91 86.06,-41.80 85.65,-41.69 85.22,-41.68 84.79,-41.67 84.38,-41.77 83.96,-41.86 83.58,-42.05 83.19,-42.25 82.87,-42.52 82.54,-42.80 82.29,-43.15 82.04,-43.49 81.88,-43.89 81.72,-44.29 81.66,-44.71 81.60,-45.14 81.65,-45.56 81.69,-45.99 81.83,-46.39 81.98,-46.79 82.21,-47.15 82.45,-47.51 89.06,-48.35 95.68,-49.20 107.97,-53.88 120.26,-58.57 136.79,-66.01 153.31,-73.46 162.05,-77.76 170.80,-82.05 173.89,-83.46 176.97,-84.86 177.32,-84.99 177.67,-85.11 178.04,-85.14 178.40,-85.18 178.77,-85.13 179.14,-85.07 179.48,-84.93 179.82,-84.80 180.12,-84.58 180.42,-84.36 180.66,-84.08 180.89,-83.80 181.06,-83.47 181.22,-83.13 181.30,-82.77 181.38,-82.41 181.37,-82.04 181.36,-81.68 181.27,-81.32 181.17,-80.96 180.99,-80.64 180.81,-80.32 180.56,-80.05 180.31,-79.78 180.00,-79.57 179.69,-79.37 177.26,-77.48 174.83,-75.58 168.51,-70.48 162.20,-65.38 154.06,-58.35 145.92,-51.32 140.29,-44.75 134.65,-38.17 132.08,-33.01 129.50,-27.84 133.63,-25.05 137.76,-22.27 152.57,-26.42 167.37,-30.57 182.94,-37.70 198.51,-44.83 208.03,-49.87 217.54,-54.90 221.62,-57.34 225.70,-59.77 226.01,-59.89 226.31,-60.01 226.64,-60.05 226.96,-60.09 227.29,-60.05 227.61,-60.01 227.92,-59.90 228.23,-59.79 228.50,-59.60 228.77,-59.42 228.99,-59.17 229.21,-58.93 229.36,-58.64 229.51,-58.35 229.59,-58.03 229.67,-57.71 229.68,-57.39 229.68,-57.06 229.60,-56.74 229.52,-56.42 229.37,-56.13 229.22,-55.84 229.01,-55.59 228.79,-55.35 228.52,-55.16 228.25,-54.97 222.40,-50.12 216.55,-45.26 209.08,-40.19 201.60,-35.12 196.97,-32.11 192.34,-29.10 190.52,-27.33 188.70,-25.57 188.34,-25.39 187.98,-25.21 187.59,-25.12 187.21,-25.04 186.81,-25.04 186.41,-25.05 186.03,-25.16 185.64,-25.26 185.29,-25.45 184.94,-25.64 184.65,-25.91 184.36,-26.18 184.14,-26.52 183.92,-26.85 183.79,-27.22 183.65,-27.60 183.61,-27.99 183.57,-28.39 183.63,-28.78 183.69,-29.18 183.84,-29.55 183.98,-29.92 184.22,-30.24 184.45,-30.56 184.75,-30.82 185.06,-31.08 201.57,-35.92 218.08,-40.77 228.34,-45.02 238.61,-49.27 245.31,-52.52 252.01,-55.76 252.34,-55.85 252.67,-55.95 253.01,-55.96 253.35,-55.97 253.69,-55.90 254.02,-55.83 254.33,-55.68 254.64,-55.54 254.90,-55.32 255.16,-55.10 255.37,-54.83 255.57,-54.55 255.71,-54.24 255.84,-53.92 255.89,-53.58 255.94,-53.25 255.91,-52.90 255.89,-52.56 255.78,-52.24 255.67,-51.92 255.48,-51.63 255.30,-51.34 255.05,-51.11 254.80,-50.87 254.50,-50.70 254.21,-50.53 248.97,-45.59 243.74,-40.65 238.33,-36.12 232.93,-31.59 230.86,-29.10 228.78,-26.60 228.23,-25.39 227.67,-24.18 227.35,-23.90 227.02,-23.62 226.64,-23.42 226.25,-23.23 225.83,-23.13 225.41,-23.03 224.98,-23.03 224.54,-23.04 224.13,-23.15 223.71,-23.25 223.33,-23.46 222.95,-23.66 222.63,-23.95 222.31,-24.24 222.07,-24.60 221.82,-24.96 221.68,-25.37 221.53,-25.77 221.48,-26.20 221.43,-26.63 221.49,-27.06 221.55,-27.49 221.70,-27.89 221.86,-28.29 222.11,-28.65 222.36,-29.00 230.96,-30.28 239.55,-31.57 251.42,-35.04 263.29,-38.52 272.36,-41.97 281.43,-45.43 285.96,-46.92 290.50,-48.42 292.04,-49.28 293.57,-50.15 293.96,-50.23 294.34,-50.31 294.74,-50.29 295.13,-50.28 295.51,-50.17 295.89,-50.06 296.23,-49.86 296.57,-49.67 296.85,-49.40 297.14,-49.12 297.35,-48.79 297.56,-48.46 297.69,-48.08 297.81,-47.71 297.85,-47.32 297.88,-46.93 297.82,-46.54 297.75,-46.15 297.60,-45.79 297.45,-45.42 297.21,-45.11 296.97,-44.79 296.67,-44.54 296.36,-44.29 296.01,-44.12 295.65,-43.95 292.64,-41.81 289.62,-39.67 282.65,-35.07 275.67,-30.47 269.95,-26.01 264.22,-21.56 261.56,-19.24 258.89,-16.92 258.58,-16.74 258.28,-16.55 257.93,-16.45 257.59,-16.34 257.24,-16.32 256.88,-16.30 256.53,-16.36 256.17,-16.43 255.85,-16.58 255.52,-16.72 255.24,-16.95 254.96,-17.17 254.74,-17.45 254.52,-17.73 254.37,-18.06 254.23,-18.38 254.16,-18.74 254.10,-19.09 254.12,-19.45 254.14,-19.80 254.25,-20.15 254.36,-20.49 254.54,-20.79 254.73,-21.10 254.98,-21.35 255.24,-21.60 258.96,-20.98 262.68,-20.35 267.89,-20.84 273.10,-21.33 278.07,-22.04 283.05,-22.74 285.77,-23.27 288.50,-23.81 290.51,-25.08 292.53,-26.35 294.32,-27.58 296.11,-28.80 299.32,-26.15 302.54,-23.49 300.03,-22.38 297.52,-21.27 295.28,-20.07 293.04,-18.88 292.47,-18.75 291.90,-18.62 291.32,-18.63 290.73,-18.64 290.17,-18.79 289.60,-18.94 289.09,-19.22 288.57,-19.50 288.14,-19.89 287.71,-20.29 287.39,-20.77 287.06,-21.26 286.86,-21.81 286.67,-22.36 286.60,-22.94 286.54,-23.52 286.62,-24.10 286.70,-24.68 286.92,-25.23 287.14,-25.77 287.48,-26.24 287.82,-26.72 288.26,-27.10 288.70,-27.48 289.22,-27.75 289.75,-28.01 291.95,-28.47 294.15,-28.94 294.77,-28.96 295.38,-28.98 295.98,-28.85 296.58,-28.72 297.14,-28.45 297.69,-28.18 298.16,-27.79 298.63,-27.39 299.00,-26.90 299.36,-26.40 299.60,-25.84 299.83,-25.27 299.93,-24.66 300.02,-24.05 299.96,-23.44 299.91,-22.83 299.71,-22.24 299.51,-21.66 299.17,-21.15 298.84,-20.63 298.39,-20.21 297.94,-19.79 297.41,-19.48 296.87,-19.18 296.28,-19.02 295.69,-18.85 292.51,-17.41 289.34,-15.98 287.69,-14.59 286.03,-13.19 283.87,-11.80 281.70,-10.40 280.90,-10.09 280.09,-9.77 279.23,-9.74 278.37,-9.70 277.54,-9.94 276.71,-10.17 276.00,-10.66 275.29,-11.16 274.77,-11.85 274.26,-12.54 273.99,-13.36 273.72,-14.18 273.73,-15.04 273.74,-15.91 274.02,-16.72 274.30,-17.54 274.83,-18.22 275.36,-18.90 276.08,-19.38 276.80,-19.86 277.63,-20.08 278.47,-20.30 279.33,-20.25 280.19,-20.19 280.99,-19.87 281.79,-19.54 282.44,-18.98 283.09,-18.41 283.53,-17.67 283.97,-16.92 284.15,-16.08 284.32,-15.23 284.22,-14.38 284.12,-13.52 283.75,-12.74 283.38,-11.96 282.78,-11.34 282.18,-10.72 281.42,-10.32 280.65,-9.92 279.80,-9.79 278.95,-9.66 278.09,-9.81 277.24,-9.96 276.49,-10.37 275.73,-10.78 275.14,-11.41 274.55,-12.04 274.20,-12.83 273.84,-13.62 273.76,-14.48 273.67,-15.33 273.86,-16.18 274.06,-17.02 274.51,-17.75 274.96,-18.49 275.62,-19.04 276.29,-19.59 276.29,-19.59 276.29,-19.59 277.94,-20.44 279.58,-21.29 281.74,-22.94 283.89,-24.59 289.02,-26.76 294.15,-28.94 294.76,-28.96 295.38,-28.98 295.98,-28.85 296.58,-28.72 297.14,-28.45 297.69,-28.18 298.16,-27.79 298.63,-27.39 299.00,-26.90 299.36,-26.40 299.60,-25.84 299.83,-25.27 299.93,-24.66 300.02,-24.05 299.96,-23.44 299.91,-22.83 299.71,-22.25 299.51,-21.66 299.17,-21.15 298.84,-20.63 298.39,-20.21 297.94,-19.79 297.41,-19.48 296.87,-19.18 296.28,-19.02 295.69,-18.85 294.37,-18.87 293.04,-18.88 292.47,-18.75 291.90,-18.62 291.32,-18.63 290.73,-18.64 290.17,-18.79 289.60,-18.94 289.09,-19.22 288.57,-19.50 288.14,-19.89 287.71,-20.29 287.39,-20.77 287.06,-21.26 286.86,-21.81 286.67,-22.36 286.60,-22.94 286.54,-23.52 286.62,-24.10 286.70,-24.68 286.92,-25.23 287.14,-25.77 287.48,-26.24 287.81,-26.72 288.26,-27.10 288.70,-27.48 289.22,-27.75 289.75,-28.01 289.92,-28.18 290.08,-28.36 292.19,-29.04 294.29,-29.72 297.08,-30.63 299.87,-31.54 302.64,-30.01 305.40,-28.49 302.73,-25.18 300.06,-21.87 297.92,-20.85 295.77,-19.83 292.59,-18.52 289.42,-17.21 286.67,-17.09 283.93,-16.97 278.75,-16.13 273.58,-15.29 266.23,-16.10 258.89,-16.92 258.58,-16.74 258.28,-16.55 257.94,-16.45 257.59,-16.34 257.24,-16.32 256.88,-16.30 256.53,-16.36 256.17,-16.43 255.85,-16.58 255.52,-16.72 255.24,-16.95 254.96,-17.17 254.74,-17.45 254.52,-17.73 254.37,-18.06 254.23,-18.38 254.16,-18.74 254.10,-19.09 254.12,-19.45 254.14,-19.80 254.25,-20.15 254.36,-20.49 254.54,-20.79 254.73,-21.10 254.98,-21.35 255.24,-21.60 258.08,-23.70 260.91,-25.81 266.79,-30.40 272.67,-35.00 279.45,-39.51 286.24,-44.01 289.91,-47.08 293.57,-50.15 293.96,-50.23 294.34,-50.31 294.74,-50.29 295.13,-50.28 295.51,-50.17 295.89,-50.06 296.23,-49.86 296.57,-49.67 296.85,-49.40 297.14,-49.12 297.35,-48.79 297.56,-48.46 297.69,-48.08 297.81,-47.71 297.85,-47.32 297.88,-46.93 297.82,-46.54 297.75,-46.15 297.60,-45.79 297.45,-45.42 297.21,-45.11 296.97,-44.79 296.67,-44.54 296.36,-44.29 296.01,-44.12 295.65,-43.95 293.97,-43.54 292.28,-43.13 287.88,-41.62 283.48,-40.11 274.22,-36.50 264.96,-32.89 252.66,-29.21 240.36,-25.53 234.02,-24.86 227.67,-24.18 227.35,-23.90 227.02,-23.62 226.64,-23.42 226.25,-23.23 225.83,-23.13 225.41,-23.03 224.98,-23.03 224.55,-23.04 224.13,-23.15 223.71,-23.25 223.33,-23.46 222.95,-23.66 222.63,-23.95 222.31,-24.24 222.07,-24.60 221.82,-24.96 221.68,-25.37 221.53,-25.77 221.48,-26.20 221.43,-26.63 221.49,-27.06 221.55,-27.49 221.70,-27.89 221.86,-28.29 222.11,-28.65 222.36,-29.00 223.19,-29.95 224.02,-30.90 226.55,-33.49 229.08,-36.08 234.52,-40.81 239.95,-45.53 245.98,-50.64 252.01,-55.76 252.34,-55.85 252.67,-55.95 253.01,-55.96 253.35,-55.97 253.69,-55.90 254.02,-55.83 254.33,-55.68 254.64,-55.54 254.90,-55.32 255.16,-55.10 255.37,-54.83 255.57,-54.55 255.70,-54.24 255.84,-53.92 255.89,-53.58 255.94,-53.25 255.91,-52.91 255.89,-52.56 255.78,-52.24 255.67,-51.92 255.48,-51.63 255.30,-51.34 255.05,-51.11 254.80,-50.87 254.50,-50.70 254.21,-50.53 247.54,-47.21 240.86,-43.90 230.48,-39.48 220.09,-35.06 204.39,-30.31 188.70,-25.57 188.34,-25.39 187.98,-25.21 187.59,-25.12 187.21,-25.04 186.81,-25.04 186.41,-25.05 186.03,-25.16 185.64,-25.26 185.29,-25.45 184.94,-25.64 184.65,-25.91 184.36,-26.18 184.14,-26.52 183.92,-26.85 183.79,-27.22 183.65,-27.60 183.61,-27.99 183.57,-28.39 183.63,-28.78 183.69,-29.18 183.84,-29.55 183.98,-29.92 184.22,-30.24 184.45,-30.56 184.75,-30.82 185.06,-31.08 187.13,-32.46 189.21,-33.84 193.75,-36.88 198.29,-39.93 205.63,-45.04 212.96,-50.15 219.33,-54.96 225.70,-59.77 226.01,-59.89 226.31,-60.01 226.64,-60.05 226.96,-60.09 227.29,-60.05 227.61,-60.01 227.92,-59.90 228.23,-59.79 228.50,-59.60 228.77,-59.42 228.99,-59.17 229.21,-58.93 229.36,-58.64 229.51,-58.35 229.59,-58.03 229.67,-57.71 229.68,-57.39 229.68,-57.06 229.60,-56.74 229.52,-56.42 229.37,-56.13 229.22,-55.84 229.01,-55.59 228.79,-55.35 228.52,-55.16 228.25,-54.97 224.19,-52.50 220.13,-50.04 210.49,-44.89 200.85,-39.74 184.87,-32.39 168.89,-25.03 152.76,-20.80 136.63,-16.57 130.55,-18.15 124.47,-19.73 124.52,-25.01 124.58,-30.28 127.48,-36.03 130.37,-41.77 136.27,-48.70 142.16,-55.63 150.31,-62.78 158.46,-69.94 164.78,-75.20 171.10,-80.46 174.04,-82.66 176.97,-84.86 177.32,-84.99 177.67,-85.11 178.04,-85.14 178.40,-85.18 178.77,-85.13 179.14,-85.07 179.48,-84.93 179.82,-84.80 180.12,-84.58 180.42,-84.36 180.66,-84.08 180.89,-83.80 181.06,-83.47 181.22,-83.14 181.30,-82.77 181.38,-82.41 181.37,-82.04 181.36,-81.68 181.27,-81.32 181.17,-80.96 180.99,-80.64 180.81,-80.32 180.56,-80.05 180.31,-79.78 180.00,-79.57 179.69,-79.37 176.47,-78.24 173.25,-77.10 164.44,-72.71 155.63,-68.33 138.98,-60.75 122.32,-53.18 109.31,-48.22 96.30,-43.27 92.08,-43.09 87.86,-42.90 87.54,-42.61 87.23,-42.32 86.85,-42.12 86.48,-41.91 86.06,-41.80 85.65,-41.69 85.22,-41.68 84.79,-41.67 84.38,-41.77 83.96,-41.86 83.58,-42.05 83.19,-42.24 82.87,-42.52 82.54,-42.80 82.29,-43.15 82.04,-43.49 81.88,-43.89 81.72,-44.29 81.66,-44.71 81.60,-45.14 81.65,-45.56 81.69,-45.99 81.83,-46.39 81.98,-46.79 82.21,-47.15 82.45,-47.51 83.39,-48.85 84.34,-50.20 86.50,-52.37 88.66,-54.54 93.07,-58.35 97.48,-62.16 102.90,-66.19 108.31,-70.23 111.77,-73.29 115.24,-76.34 115.57,-76.50 115.90,-76.65 116.26,-76.72 116.62,-76.79 116.99,-76.78 117.35,-76.76 117.70,-76.65 118.05,-76.55 118.37,-76.36 118.69,-76.18 118.95,-75.92 119.21,-75.66 119.40,-75.35 119.60,-75.04 119.71,-74.69 119.82,-74.34 119.85,-73.98 119.88,-73.61 119.81,-73.25 119.75,-72.89 119.61,-72.56 119.46,-72.22 119.24,-71.93 119.01,-71.64 118.73,-71.41 118.44,-71.18 117.55,-71.14 116.66,-71.11 112.80,-68.68 108.95,-66.26 100.57,-61.29 92.20,-56.32 81.10,-49.27 70.00,-42.23 59.06,-36.47 48.12,-30.71 42.71,-30.73 37.30,-30.76 35.18,-34.78 33.06,-38.81 32.89,-45.08 32.73,-51.35 33.74,-60.97 34.74,-70.59 36.49,-80.35 38.24,-90.12 41.04,-97.96 43.84,-105.79 47.76,-111.52 51.68,-117.25 51.81,-117.58 51.93,-117.90 52.13,-118.19 52.33,-118.48 52.60,-118.71 52.86,-118.94 53.17,-119.10 53.48,-119.26 53.83,-119.34 54.17,-119.42 54.52,-119.42 54.87,-119.41 55.21,-119.33 55.54,-119.24 55.85,-119.08 56.16,-118.91 56.42,-118.68 56.68,-118.44 56.88,-118.15 57.07,-117.86 57.20,-117.53 57.32,-117.21 57.36,-116.86 57.40,-116.51 57.35,-116.16 57.31,-115.82 56.21,-112.14 55.12,-108.46 52.72,-98.99 50.32,-89.51 45.36,-74.78 40.39,-60.05 34.76,-47.13 29.13,-34.20 23.42,-25.07 17.71,-15.93 13.21,-10.32 8.71,-4.71 5.63,-1.18 2.55,2.33 2.23,2.61 1.91,2.88 1.54,3.06 1.17,3.25 0.76,3.35 0.35,3.44 -0.05,3.43 -0.47,3.42 -0.87,3.32 -1.28,3.21 -1.64,3.01 -2.01,2.81 -2.32,2.53 -2.62,2.25 -2.86,1.90 -3.09,1.55 -3.23,1.16 -3.37,0.77 -3.41,0.35 -3.46,-0.05 -3.40,-0.47 -3.34,-0.88 -3.19,-1.27 -3.03,-1.66 -2.79,-2.00 -2.55,-2.33 -2.55,-2.33 L -2.55,-2.33 Z"></path></g></svg>